<mxfile host="app.diagrams.net" agent="Mozilla/5.0 (X11; Ubuntu; Linux x86_64; rv:133.0) Gecko/20100101 Firefox/133.0" version="26.0.3">
  <diagram name="Page-1" id="or4P5VRT6CnF76IZ8Dhm">
    <mxGraphModel dx="1604" dy="758" grid="1" gridSize="10" guides="1" tooltips="1" connect="1" arrows="1" fold="1" page="1" pageScale="1" pageWidth="850" pageHeight="1100" math="0" shadow="0">
      <root>
        <mxCell id="0" />
        <mxCell id="1" parent="0" />
        <mxCell id="YSPzNxrB-1Ei3v5mKGvx-1" value="" style="rounded=0;whiteSpace=wrap;html=1;" vertex="1" parent="1">
          <mxGeometry x="107" y="160" width="628" height="165" as="geometry" />
        </mxCell>
        <mxCell id="YSPzNxrB-1Ei3v5mKGvx-2" value="&lt;div&gt;Challenger&lt;/div&gt;&lt;div&gt;&lt;br&gt;&lt;/div&gt;&lt;div&gt;(pk, sk) &amp;lt;- G()&lt;br&gt;&lt;/div&gt;" style="rounded=0;whiteSpace=wrap;html=1;" vertex="1" parent="1">
          <mxGeometry x="123" y="194" width="120" height="114" as="geometry" />
        </mxCell>
        <mxCell id="YSPzNxrB-1Ei3v5mKGvx-3" value="Adv. A" style="rounded=0;whiteSpace=wrap;html=1;" vertex="1" parent="1">
          <mxGeometry x="583" y="192" width="120" height="114" as="geometry" />
        </mxCell>
        <mxCell id="YSPzNxrB-1Ei3v5mKGvx-4" value="" style="endArrow=classic;html=1;rounded=0;fontSize=12;startSize=8;endSize=8;curved=1;exitX=1;exitY=0.25;exitDx=0;exitDy=0;entryX=0;entryY=0.25;entryDx=0;entryDy=0;" edge="1" parent="1" source="YSPzNxrB-1Ei3v5mKGvx-2" target="YSPzNxrB-1Ei3v5mKGvx-3">
          <mxGeometry width="50" height="50" relative="1" as="geometry">
            <mxPoint x="331" y="344" as="sourcePoint" />
            <mxPoint x="381" y="294" as="targetPoint" />
          </mxGeometry>
        </mxCell>
        <mxCell id="YSPzNxrB-1Ei3v5mKGvx-5" value="pk" style="text;html=1;align=center;verticalAlign=middle;whiteSpace=wrap;rounded=0;fontSize=16;" vertex="1" parent="1">
          <mxGeometry x="326" y="192" width="60" height="30" as="geometry" />
        </mxCell>
        <mxCell id="YSPzNxrB-1Ei3v5mKGvx-6" value="" style="endArrow=classic;html=1;rounded=0;fontSize=12;startSize=8;endSize=8;curved=1;exitX=0;exitY=0.5;exitDx=0;exitDy=0;entryX=1;entryY=0.5;entryDx=0;entryDy=0;" edge="1" parent="1" source="YSPzNxrB-1Ei3v5mKGvx-3" target="YSPzNxrB-1Ei3v5mKGvx-2">
          <mxGeometry width="50" height="50" relative="1" as="geometry">
            <mxPoint x="331" y="344" as="sourcePoint" />
            <mxPoint x="381" y="294" as="targetPoint" />
          </mxGeometry>
        </mxCell>
        <mxCell id="YSPzNxrB-1Ei3v5mKGvx-7" value="m0, m1 in M: |m0| = |m1|" style="text;html=1;align=center;verticalAlign=middle;whiteSpace=wrap;rounded=0;fontSize=16;" vertex="1" parent="1">
          <mxGeometry x="289" y="222" width="224" height="30" as="geometry" />
        </mxCell>
        <mxCell id="YSPzNxrB-1Ei3v5mKGvx-8" value="" style="endArrow=classic;html=1;rounded=0;fontSize=12;startSize=8;endSize=8;curved=1;exitX=1;exitY=0.75;exitDx=0;exitDy=0;entryX=0;entryY=0.75;entryDx=0;entryDy=0;" edge="1" parent="1" source="YSPzNxrB-1Ei3v5mKGvx-2" target="YSPzNxrB-1Ei3v5mKGvx-3">
          <mxGeometry width="50" height="50" relative="1" as="geometry">
            <mxPoint x="331" y="344" as="sourcePoint" />
            <mxPoint x="381" y="294" as="targetPoint" />
          </mxGeometry>
        </mxCell>
        <mxCell id="YSPzNxrB-1Ei3v5mKGvx-9" value="c &amp;lt;- E(pk, mb)" style="text;html=1;align=center;verticalAlign=middle;whiteSpace=wrap;rounded=0;fontSize=16;" vertex="1" parent="1">
          <mxGeometry x="326" y="252" width="122" height="30" as="geometry" />
        </mxCell>
        <mxCell id="YSPzNxrB-1Ei3v5mKGvx-10" value="" style="endArrow=classic;html=1;rounded=0;fontSize=12;startSize=8;endSize=8;curved=1;entryX=0.008;entryY=0.193;entryDx=0;entryDy=0;entryPerimeter=0;" edge="1" parent="1" target="YSPzNxrB-1Ei3v5mKGvx-2">
          <mxGeometry width="50" height="50" relative="1" as="geometry">
            <mxPoint x="60" y="216" as="sourcePoint" />
            <mxPoint x="367" y="294" as="targetPoint" />
          </mxGeometry>
        </mxCell>
        <mxCell id="YSPzNxrB-1Ei3v5mKGvx-11" value="b" style="text;html=1;align=center;verticalAlign=middle;whiteSpace=wrap;rounded=0;fontSize=16;" vertex="1" parent="1">
          <mxGeometry x="40" y="186" width="60" height="30" as="geometry" />
        </mxCell>
        <mxCell id="YSPzNxrB-1Ei3v5mKGvx-12" value="" style="endArrow=classic;html=1;rounded=0;fontSize=12;startSize=8;endSize=8;curved=1;exitX=0.992;exitY=0.825;exitDx=0;exitDy=0;exitPerimeter=0;" edge="1" parent="1" source="YSPzNxrB-1Ei3v5mKGvx-3">
          <mxGeometry width="50" height="50" relative="1" as="geometry">
            <mxPoint x="703" y="344" as="sourcePoint" />
            <mxPoint x="805" y="286" as="targetPoint" />
          </mxGeometry>
        </mxCell>
        <mxCell id="YSPzNxrB-1Ei3v5mKGvx-13" value="b&#39; in {0, 1}" style="text;html=1;align=center;verticalAlign=middle;whiteSpace=wrap;rounded=0;fontSize=16;" vertex="1" parent="1">
          <mxGeometry x="745" y="250" width="89" height="30" as="geometry" />
        </mxCell>
        <mxCell id="YSPzNxrB-1Ei3v5mKGvx-14" value="EXP(b)" style="text;html=1;align=center;verticalAlign=middle;whiteSpace=wrap;rounded=0;fontSize=16;" vertex="1" parent="1">
          <mxGeometry x="747" y="289" width="89" height="30" as="geometry" />
        </mxCell>
      </root>
    </mxGraphModel>
  </diagram>
</mxfile>
